# xmcd CD database file
#
# Track frame offsets:
#	180
#	44200
#	75064
#	113902
#	155827
#
# Disc length: 2523 seconds
#
# Revision: 0
# Processed by: cddbd v1.5PL3 Copyright (c) Steve Scherf et al.
# Submitted via: CDex 1.51
#
DISCID=3809d905
DTITLE=Daniel Donadi - Cry of the Loon
DYEAR=1900
DGENRE=New Age
TTITLE0=Cry of The Loon
TTITLE1=The Gathering
TTITLE2=Echoes In The Distance
TTITLE3=Down By The River
TTITLE4=Majestic Diver
EXTD=
EXTT0=
EXTT1=
EXTT2=
EXTT3=
EXTT4=
PLAYORDER=
